<svg width="16" height="16" viewBox="0 0 16 16" fill="none" xmlns="http://www.w3.org/2000/svg">
<path d="M5.07046 0.124939C5.56658 0.140027 6.04695 0.226651 6.51236 0.384937H6.55882C6.59032 0.399899 6.61394 0.416436 6.62969 0.431399C6.80373 0.487311 6.96832 0.55031 7.12581 0.636934L7.42506 0.770808C7.54319 0.833807 7.68493 0.951143 7.76368 0.99918C7.84243 1.04564 7.92906 1.09368 7.99993 1.14802C8.87483 0.479436 9.93716 0.11719 11.0318 0.124939C11.5287 0.124939 12.0248 0.195151 12.4965 0.353437C15.4031 1.29843 16.4505 4.48777 15.5756 7.27549C15.0795 8.70006 14.2684 10.0002 13.206 11.0625C11.6854 12.5351 10.0167 13.8424 8.22043 14.9685L8.02356 15.0874L7.81881 14.9606C6.01624 13.8424 4.33809 12.5351 2.80327 11.0547C1.74803 9.99234 0.936129 8.70006 0.432135 7.27549C-0.457731 4.48777 0.589633 1.29843 3.52777 0.3369C3.75614 0.258151 3.9916 0.203026 4.22785 0.172314H4.32234C4.54363 0.140027 4.76334 0.124939 4.98384 0.124939H5.07046ZM12.087 2.61354C11.7641 2.5025 11.4098 2.67654 11.2916 3.00728C11.1814 3.33803 11.3546 3.70028 11.6854 3.81761C12.1902 4.00661 12.528 4.50352 12.528 5.05397V5.07839C12.513 5.25872 12.5674 5.43276 12.6776 5.56663C12.7879 5.70051 12.9533 5.77847 13.1265 5.795C13.4494 5.78634 13.725 5.52726 13.7486 5.19572V5.10201C13.7722 3.99874 13.1037 2.99941 12.087 2.61354Z" fill="#E29578"/>
</svg>
